<svg id="Calque_2" data-name="Calque 2" xmlns="http://www.w3.org/2000/svg" viewBox="0 0 131.27 131.27">
  <defs>
    <style>
      .cls-1 {
        fill: #fff;
        stroke: #000;
        stroke-miterlimit: 10;
        stroke-width: 1.02px;
      }
    </style>
  </defs>
  <title>football</title>
  <circle class="cls-1" cx="65.64" cy="65.64" r="65.13"/>
  <polygon points="33.51 60.64 54.7 40.26 79.01 51.14 75.89 82.26 46.51 85.76 33.51 60.64"/>
  <polygon points="114.76 23.01 108.89 20.51 101.89 19.26 104.39 40.26 121.64 58.76 128.76 49.76 125.09 39.01 114.76 23.01"/>
  <polygon points="37.14 7.14 33.51 13.51 42.89 13.51 52.26 15.89 76.01 6.14 70.39 0.51 54.76 1.42 46.01 3.39 37.14 7.14"/>
  <polygon points="5.39 41.01 11.39 35.89 12.51 57.64 7.89 67.14 4.76 78.01 1.09 74.34 0.51 63.01 2.26 49.76 5.39 41.01"/>
  <polygon points="21.76 113.89 19.14 105.39 37.01 109.64 56.26 125.01 49.64 129.01 34.76 123.14 21.76 113.89"/>
  <polygon points="99.01 121.64 86.39 120.01 95.51 99.51 116.39 88.39 121.51 99.39 111.26 112.14 99.01 121.64"/>
</svg>
